<svg width="100%" height="100%" viewBox="0 0 44 38" style="fill-rule:evenodd;clip-rule:evenodd;stroke-linejoin:round;stroke-miterlimit:2;">
  <path d="M22,0C21.466,0 20.954,0.214 20.578,0.594L0.406,18.195C0.151,18.384 -0,18.683 0,19C0,19.549 0.451,20 1,20L6,20L6,36C6,37.104 6.896,38 8,38L16,38C17.104,38 18,37.104 18,36L18,24L26,24L26,36C26,37.104 26.896,38 28,38L36,38C37.104,38 38,37.104 38,36L38,20L43,20C43.549,20 44,19.549 44,19C44,18.683 43.849,18.384 43.594,18.195L23.434,0.605C23.43,0.602 23.426,0.598 23.422,0.594C23.046,0.214 22.534,0 22,0Z" style="fill-rule:nonzero;"/>
</svg>
