<svg width="100%" height="100%" viewBox="0 0 49 49" style="fill-rule:evenodd;clip-rule:evenodd;stroke-linejoin:round;stroke-miterlimit:2;">
  <path d="M20,0C8.978,0 0,8.978 0,20C0,31.022 8.978,40 20,40C24.793,40 29.195,38.298 32.645,35.473L44.586,47.414C44.963,47.807 45.484,48.029 46.029,48.029C47.126,48.029 48.029,47.126 48.029,46.029C48.029,45.484 47.807,44.963 47.414,44.586L35.473,32.645C38.298,29.195 40,24.793 40,20C40,8.978 31.022,0 20,0ZM20,4C28.86,4 36,11.14 36,20C36,28.86 28.86,36 20,36C11.14,36 4,28.86 4,20C4,11.14 11.14,4 20,4Z" style="fill-rule:nonzero;"/>
</svg>
